<svg id="svg" version="1.1" xmlns="http://www.w3.org/2000/svg" xmlns:xlink="http://www.w3.org/1999/xlink" width="400" height="282.89623717217785" viewBox="0, 0, 400,282.89623717217785"><g id="svgg"><path id="path0" d="M206.667 142.458 C 206.674 154.620,210.496 167.818,216.718 177.167 C 228.638 195.076,250.606 201.072,269.167 191.480 C 278.375 186.721,285.313 179.748,294.540 165.978 C 302.370 154.292,304.677 151.631,310.083 148.049 C 313.047 146.086,316.451 144.343,318.915 143.528 L 320.247 143.087 319.332 142.954 C 312.327 141.932,303.445 147.218,293.074 158.581 C 275.894 177.405,266.812 182.822,254.325 181.694 C 242.299 180.608,234.600 174.712,222.726 157.500 C 215.423 146.913,212.885 144.165,208.917 142.549 C 207.204 141.851,206.667 141.830,206.667 142.458 " stroke="none" fill="#5cc3db" fill-rule="evenodd"></path><path id="path1" d="M130.011 112.625 C 130.020 127.354,130.071 132.638,130.205 132.333 C 134.630 122.227,141.614 115.283,151.417 111.242 C 152.802 110.671,152.828 110.641,152.831 109.624 C 152.852 103.026,156.200 95.840,160.667 92.800 C 161.060 92.533,160.214 92.517,145.542 92.509 L 130.000 92.500 130.011 112.625 M105.917 92.941 C 98.781 93.763,92.500 99.248,90.101 106.750 C 88.687 111.175,88.667 111.542,88.665 133.582 C 88.662 155.412,88.547 157.788,87.237 163.083 C 85.312 170.861,82.064 175.435,77.333 177.032 L 76.417 177.342 79.750 177.260 C 89.203 177.029,99.673 173.986,106.296 169.545 C 107.055 169.036,107.715 168.556,107.763 168.479 C 108.087 167.954,109.078 163.358,109.573 160.083 C 110.457 154.226,110.500 152.449,110.500 121.487 L 110.500 92.833 108.458 92.858 C 107.335 92.872,106.192 92.909,105.917 92.941 M319.695 95.668 C 307.478 102.030,300.762 113.517,299.088 130.917 C 298.776 134.158,298.540 147.238,298.795 147.148 C 298.894 147.112,299.337 146.743,299.779 146.328 C 305.380 141.064,313.181 136.487,319.521 134.746 L 320.458 134.489 320.573 131.619 C 321.068 119.298,324.139 112.536,330.750 109.209 C 335.657 106.739,342.766 106.624,348.243 108.925 C 348.737 109.133,346.667 106.524,344.762 104.540 C 338.862 98.393,331.440 95.100,322.778 94.789 C 321.482 94.742,321.459 94.749,319.695 95.668 M318.080 146.559 C 310.538 149.859,306.441 153.511,300.448 162.278 L 298.833 164.639 298.833 179.510 L 298.833 194.381 301.458 194.283 C 311.126 193.924,317.902 187.472,320.035 176.594 C 320.488 174.286,320.735 145.659,320.302 145.675 C 320.182 145.679,319.182 146.077,318.080 146.559 " stroke="none" fill="#f6a759" fill-rule="evenodd"></path><path id="path2" d="M167.583 92.835 C 160.190 94.349,156.454 99.242,155.416 108.773 L 155.305 109.796 156.444 109.477 C 162.119 107.883,164.349 107.674,176.750 107.572 C 190.424 107.460,192.230 107.249,196.598 105.253 C 201.471 103.026,205.395 98.041,205.942 93.381 L 206.046 92.500 187.565 92.514 C 170.297 92.527,168.985 92.548,167.583 92.835 M27.237 142.907 C 27.048 143.661,27.298 153.175,27.568 155.500 C 28.892 166.906,32.144 175.261,37.958 182.193 C 52.010 198.951,81.420 200.731,97.110 185.774 C 98.792 184.171,99.135 183.722,98.542 183.897 C 98.381 183.945,97.345 184.099,96.239 184.240 C 87.306 185.376,79.733 185.256,71.612 183.848 C 51.603 180.380,34.786 165.081,27.904 144.087 C 27.417 142.602,27.346 142.475,27.237 142.907 M298.746 179.500 C 298.746 187.612,298.767 190.931,298.792 186.875 C 298.816 182.819,298.816 176.181,298.792 172.125 C 298.767 168.069,298.746 171.387,298.746 179.500 " stroke="none" fill="#93c34b" fill-rule="evenodd"></path><path id="path3" d="M336.083 87.595 C 334.555 87.668,331.449 87.984,330.500 88.162 C 328.777 88.487,327.707 88.717,327.000 88.915 C 325.100 89.449,324.676 89.574,323.583 89.927 C 320.682 90.865,315.138 93.562,314.500 94.348 C 314.454 94.404,314.237 94.545,314.018 94.660 C 313.652 94.853,311.834 96.192,311.407 96.583 C 311.307 96.675,310.785 97.125,310.248 97.583 C 308.507 99.067,305.839 101.976,304.666 103.667 C 304.443 103.987,304.165 104.349,304.047 104.470 C 303.930 104.591,303.833 104.755,303.833 104.833 C 303.833 104.912,303.737 105.075,303.619 105.196 C 303.092 105.737,300.443 110.657,299.821 112.250 C 298.642 115.272,297.799 117.870,297.335 119.917 C 297.231 120.375,297.083 121.013,297.006 121.333 C 296.311 124.226,296.027 126.137,295.502 131.464 C 295.409 132.407,295.333 137.036,295.333 141.750 L 295.333 150.322 294.208 151.453 C 293.590 152.076,292.641 153.072,292.101 153.667 C 286.770 159.539,280.889 165.411,278.833 166.914 C 278.512 167.148,278.175 167.436,278.083 167.554 C 277.992 167.672,277.542 168.021,277.083 168.331 C 276.625 168.641,276.212 168.946,276.167 169.008 C 276.008 169.224,272.367 171.667,272.204 171.667 C 272.114 171.667,271.952 171.773,271.845 171.903 C 271.674 172.108,268.741 173.614,267.000 174.390 C 263.251 176.061,256.088 176.998,253.000 176.221 C 252.588 176.117,251.838 175.943,251.333 175.833 C 242.653 173.939,235.005 165.935,232.754 156.387 C 232.175 153.932,232.074 153.353,231.579 149.667 C 231.210 146.917,231.212 139.002,231.581 136.741 C 232.304 132.318,233.044 129.386,233.944 127.385 C 234.158 126.910,234.333 126.476,234.333 126.422 C 234.333 125.956,237.172 120.769,237.833 120.027 C 237.971 119.873,238.383 119.372,238.748 118.915 C 239.596 117.855,241.015 116.437,242.083 115.583 C 242.541 115.216,243.011 114.828,243.126 114.719 C 243.241 114.611,243.485 114.474,243.668 114.416 C 243.850 114.358,244.000 114.253,244.000 114.183 C 244.000 113.810,248.583 111.818,250.500 111.358 C 252.885 110.785,253.289 110.765,262.667 110.754 C 273.271 110.742,274.390 110.626,277.917 109.180 C 285.944 105.888,290.720 99.676,291.107 92.025 C 291.270 88.801,291.529 89.084,288.211 88.862 C 277.212 88.125,257.171 87.546,252.226 87.822 C 244.115 88.274,238.828 89.382,232.417 91.971 C 230.342 92.809,224.329 96.203,223.833 96.816 C 223.787 96.872,223.450 97.142,223.083 97.414 C 221.205 98.811,218.875 101.015,217.083 103.091 C 216.533 103.729,216.042 104.287,215.992 104.333 C 215.942 104.379,215.718 104.679,215.494 105.000 C 215.271 105.321,214.996 105.696,214.883 105.833 C 214.206 106.658,212.333 109.612,212.333 109.854 C 212.333 109.934,212.258 110.000,212.167 110.000 C 212.075 110.000,212.000 110.107,212.000 110.238 C 212.000 110.369,211.904 110.575,211.787 110.696 C 211.343 111.156,208.825 116.581,208.167 118.500 C 208.056 118.821,207.901 119.233,207.821 119.417 C 207.368 120.453,206.268 124.111,205.842 126.000 C 205.769 126.321,205.556 127.221,205.367 128.000 C 204.954 129.708,204.749 130.705,204.494 132.250 C 204.151 134.326,204.200 134.211,203.701 134.124 C 203.313 134.057,200.789 133.429,197.500 132.583 C 196.610 132.354,195.634 132.151,193.917 131.838 C 193.458 131.755,192.671 131.610,192.167 131.515 C 191.662 131.421,190.762 131.272,190.167 131.183 C 189.109 131.026,188.639 130.966,184.000 130.398 C 180.800 130.005,171.622 130.006,168.583 130.399 C 164.183 130.968,161.481 131.423,159.000 132.012 C 158.679 132.088,158.059 132.227,157.623 132.321 C 157.186 132.414,156.698 132.557,156.539 132.639 C 156.380 132.720,156.006 132.833,155.708 132.889 L 155.167 132.992 155.167 127.826 C 155.167 121.325,155.762 118.370,157.631 115.604 C 158.649 114.098,161.305 111.833,162.053 111.833 C 162.171 111.833,162.338 111.771,162.425 111.696 C 162.512 111.620,162.921 111.461,163.333 111.343 C 163.746 111.225,164.308 111.045,164.583 110.945 C 164.918 110.822,169.096 110.724,177.250 110.649 C 188.647 110.543,190.051 110.485,192.417 110.028 C 196.702 109.200,201.187 106.968,203.734 104.397 C 205.548 102.566,206.840 100.899,207.440 99.616 C 207.577 99.323,207.807 98.865,207.950 98.597 C 208.933 96.766,209.651 93.316,209.661 90.375 L 209.667 88.833 168.088 88.833 L 126.510 88.833 126.459 117.458 C 126.417 140.301,126.364 146.218,126.192 146.750 C 126.073 147.117,125.824 147.904,125.637 148.500 C 125.156 150.041,123.459 153.500,122.875 154.132 C 122.760 154.256,122.667 154.413,122.667 154.480 C 122.667 154.548,122.535 154.751,122.375 154.931 C 122.215 155.111,121.823 155.631,121.506 156.087 C 121.188 156.543,120.851 156.997,120.756 157.096 C 120.661 157.194,120.216 157.701,119.766 158.222 C 118.474 159.719,115.514 162.581,114.333 163.474 C 114.013 163.716,113.712 163.955,113.667 164.003 C 113.145 164.557,111.854 165.372,112.082 165.002 C 112.138 164.912,112.262 164.406,112.357 163.877 C 112.453 163.349,112.597 162.579,112.677 162.167 C 113.931 155.719,113.997 153.599,113.998 119.292 L 114.000 89.167 109.958 89.168 C 105.262 89.169,103.634 89.362,101.083 90.215 C 99.928 90.602,97.610 91.682,97.528 91.871 C 97.497 91.942,97.402 92.000,97.316 92.000 C 96.436 92.000,92.454 95.520,90.679 97.867 C 89.456 99.484,87.333 103.258,87.333 103.815 C 87.333 103.892,87.192 104.322,87.018 104.769 C 86.592 105.872,86.166 107.514,85.770 109.583 C 85.208 112.524,85.167 114.132,85.168 133.282 C 85.170 153.780,85.139 154.741,84.319 160.000 C 82.963 168.690,78.884 174.623,73.258 176.088 C 71.164 176.634,66.588 176.360,64.445 175.561 C 63.023 175.031,59.631 173.154,59.058 172.582 C 57.662 171.186,55.682 167.486,55.000 165.000 C 54.887 164.587,54.736 164.063,54.665 163.833 C 54.543 163.440,54.314 162.357,53.995 160.667 C 53.918 160.254,53.774 159.204,53.676 158.333 C 53.578 157.462,53.455 156.412,53.403 156.000 C 53.350 155.587,53.251 145.537,53.183 133.667 C 53.099 119.068,52.999 111.787,52.875 111.167 C 52.774 110.662,52.603 109.725,52.496 109.083 C 51.898 105.505,49.967 100.784,48.201 98.583 C 48.127 98.492,47.875 98.133,47.640 97.787 C 46.537 96.161,43.431 93.320,41.583 92.248 C 37.256 89.737,34.870 89.174,28.542 89.170 L 24.500 89.167 24.500 121.542 C 24.500 142.639,24.560 154.555,24.673 155.750 C 25.052 159.769,25.876 164.559,26.738 167.750 C 27.076 169.004,27.798 171.157,28.008 171.539 C 28.095 171.699,28.167 171.928,28.167 172.050 C 28.167 172.171,28.317 172.581,28.500 172.961 C 28.683 173.340,28.833 173.721,28.833 173.807 C 28.833 174.093,31.541 179.333,31.688 179.333 C 31.768 179.333,31.833 179.410,31.833 179.504 C 31.833 180.890,39.802 189.514,42.279 190.809 C 42.478 190.913,42.740 191.092,42.862 191.208 C 43.220 191.547,44.478 192.333,44.663 192.333 C 44.757 192.333,44.834 192.390,44.835 192.458 C 44.835 192.527,45.004 192.665,45.210 192.765 C 45.415 192.865,46.296 193.317,47.167 193.769 C 49.601 195.034,50.930 195.589,53.677 196.486 C 56.354 197.360,57.829 197.733,60.250 198.150 C 60.800 198.245,61.962 198.451,62.833 198.609 C 65.147 199.029,75.518 199.033,77.833 198.615 C 84.501 197.410,87.876 196.222,92.583 193.421 C 93.795 192.700,95.459 191.573,95.667 191.331 C 95.712 191.278,96.013 191.053,96.333 190.832 C 97.899 189.754,100.976 186.829,103.359 184.154 C 104.419 182.964,104.514 182.899,105.526 182.687 C 106.107 182.565,106.808 182.399,107.083 182.319 C 107.821 182.104,110.972 181.327,111.803 181.155 C 112.199 181.073,112.598 180.959,112.690 180.903 C 112.781 180.846,113.433 180.652,114.137 180.471 C 114.841 180.291,115.660 180.074,115.958 179.988 C 117.329 179.596,117.703 179.490,118.208 179.352 C 119.058 179.120,122.047 178.159,122.417 177.999 C 122.600 177.920,123.237 177.695,123.833 177.500 C 124.429 177.305,125.067 177.084,125.250 177.010 C 125.433 176.936,125.790 176.792,126.042 176.691 L 126.500 176.507 126.500 187.087 L 126.500 197.667 130.125 197.667 C 139.756 197.667,146.044 195.006,150.009 189.250 C 150.325 188.792,150.627 188.379,150.680 188.333 C 151.020 188.042,152.449 185.269,153.258 183.333 C 154.577 180.174,155.290 176.129,155.583 170.145 C 155.762 166.485,156.835 163.709,159.633 159.667 C 160.235 158.796,160.771 158.046,160.823 158.000 C 160.874 157.954,161.217 157.542,161.583 157.083 C 161.950 156.625,162.550 155.941,162.917 155.564 C 163.283 155.187,163.704 154.737,163.851 154.564 C 164.279 154.061,166.170 152.319,167.167 151.509 C 167.671 151.099,168.121 150.720,168.167 150.665 C 168.212 150.610,168.550 150.345,168.917 150.075 C 169.283 149.806,169.621 149.544,169.667 149.494 C 171.090 147.930,178.442 144.047,182.310 142.817 C 183.468 142.448,184.679 142.082,185.000 142.003 C 185.321 141.924,185.909 141.774,186.307 141.669 C 189.707 140.771,196.819 140.392,201.375 140.867 L 203.333 141.071 203.333 144.899 C 203.333 148.475,203.409 149.696,203.841 153.083 C 204.166 155.634,205.157 160.419,205.653 161.833 C 205.733 162.063,205.964 162.813,206.166 163.500 C 206.771 165.562,207.148 166.605,208.243 169.250 C 208.357 169.525,208.548 170.006,208.668 170.319 C 209.530 172.575,212.333 177.506,214.408 180.417 C 216.410 183.225,220.406 187.549,222.583 189.261 C 223.042 189.622,223.454 189.959,223.500 190.011 C 223.546 190.063,223.958 190.358,224.417 190.667 C 224.875 190.975,225.287 191.273,225.333 191.328 C 225.453 191.471,227.130 192.560,227.917 193.004 C 228.283 193.211,228.921 193.572,229.333 193.807 C 230.494 194.466,231.950 195.156,233.250 195.664 C 233.433 195.736,234.071 195.986,234.667 196.220 C 241.400 198.868,252.774 199.969,258.452 198.523 C 258.799 198.435,259.496 198.278,260.000 198.174 C 262.447 197.672,265.180 196.794,267.667 195.711 C 269.297 195.001,271.423 193.940,271.472 193.812 C 271.503 193.732,271.593 193.667,271.672 193.667 C 272.045 193.667,276.772 190.653,277.926 189.679 C 278.206 189.443,278.689 189.063,279.000 188.833 C 279.522 188.449,279.933 188.111,281.229 187.000 C 285.005 183.766,289.034 179.503,290.997 176.667 C 291.219 176.346,291.450 176.046,291.511 176.000 C 291.608 175.927,293.844 172.618,294.881 171.012 L 295.250 170.441 295.293 183.990 L 295.335 197.538 300.459 197.459 C 303.343 197.415,305.802 197.305,306.083 197.208 C 306.358 197.112,306.996 196.913,307.500 196.764 C 313.115 195.110,319.218 189.065,321.648 182.750 C 321.859 182.200,322.096 181.600,322.173 181.417 C 322.401 180.878,323.107 178.327,323.304 177.333 C 323.403 176.829,323.576 175.967,323.688 175.417 C 323.835 174.692,323.910 170.434,323.959 159.974 L 324.027 145.532 324.388 145.435 C 327.564 144.583,336.059 146.036,340.750 148.234 C 341.575 148.621,342.494 149.045,342.792 149.176 C 343.090 149.307,343.333 149.471,343.333 149.541 C 343.333 149.610,343.417 149.667,343.519 149.667 C 344.127 149.667,348.954 153.307,350.223 154.723 C 350.483 155.013,350.972 155.550,351.310 155.917 C 352.590 157.306,354.132 159.629,355.017 161.500 C 355.811 163.178,356.133 164.535,356.498 167.750 C 356.603 168.667,356.758 169.963,356.844 170.632 C 356.930 171.300,357.002 172.800,357.005 173.965 C 357.016 178.459,357.933 182.194,359.888 185.711 C 362.317 190.081,365.938 193.575,370.289 195.748 C 373.301 197.253,373.944 197.371,379.625 197.462 L 384.500 197.539 384.500 165.654 C 384.500 145.306,384.438 133.073,384.330 131.843 C 384.039 128.561,383.815 126.636,383.561 125.250 C 382.909 121.691,382.663 120.505,382.481 120.034 C 382.400 119.823,382.333 119.513,382.333 119.344 C 382.333 117.772,377.630 106.500,376.973 106.500 C 376.896 106.500,376.833 106.417,376.833 106.315 C 376.833 106.149,374.764 103.040,374.517 102.833 C 374.462 102.787,374.043 102.300,373.586 101.750 C 372.503 100.446,370.180 98.121,368.918 97.076 C 368.368 96.622,367.818 96.155,367.695 96.039 C 366.479 94.894,362.075 92.344,359.000 91.005 C 353.657 88.678,348.699 87.720,341.417 87.605 C 339.125 87.569,336.725 87.565,336.083 87.595 M160.580 92.938 C 156.258 95.792,153.747 101.205,152.870 109.561 L 152.750 110.705 151.161 111.404 C 141.534 115.637,134.624 122.382,130.743 131.333 C 130.406 132.112,130.063 132.821,129.981 132.908 C 129.895 133.001,129.833 124.612,129.833 112.783 L 129.833 92.500 145.539 92.500 L 161.244 92.500 160.580 92.938 M206.068 93.208 C 205.354 98.156,201.630 102.938,196.667 105.283 C 192.389 107.303,189.245 107.637,174.250 107.661 C 164.992 107.676,159.385 108.307,155.625 109.757 C 155.252 109.900,155.236 109.047,155.572 107.000 C 156.953 98.605,160.430 94.368,167.188 92.843 C 168.509 92.545,169.584 92.527,187.377 92.514 L 206.171 92.500 206.068 93.208 M110.453 123.875 C 110.408 147.127,110.342 155.251,110.190 156.250 C 110.079 156.983,109.872 158.446,109.731 159.500 C 109.358 162.287,108.172 167.963,107.860 168.451 C 106.504 170.575,96.506 174.730,89.083 176.255 C 83.515 177.399,74.032 177.999,77.194 177.008 C 80.918 175.840,84.123 172.197,86.000 167.000 C 87.110 163.926,87.727 160.957,88.354 155.667 C 88.478 154.628,88.584 146.800,88.665 132.917 C 88.795 110.291,88.746 111.589,89.599 108.170 C 91.898 98.948,99.115 92.930,107.965 92.855 L 110.514 92.833 110.453 123.875 M325.500 94.911 C 334.858 96.093,342.032 100.309,347.885 108.066 C 348.495 108.875,348.705 109.375,348.292 109.037 C 346.040 107.194,337.563 106.873,332.834 108.452 C 324.971 111.077,321.454 117.642,320.663 131.167 C 320.450 134.809,320.499 134.604,319.803 134.756 C 314.301 135.954,306.461 140.480,300.083 146.138 L 298.750 147.321 298.696 141.619 C 298.487 119.394,303.894 105.856,316.297 97.553 C 320.488 94.747,321.622 94.422,325.500 94.911 M342.750 111.016 C 344.347 111.333,344.922 111.520,346.625 112.278 C 347.498 112.667,349.361 114.052,350.026 114.808 C 351.004 115.918,351.302 116.296,351.511 116.694 C 351.624 116.908,351.762 117.121,351.817 117.167 C 352.175 117.465,353.674 121.026,354.097 122.583 C 354.876 125.452,355.672 131.042,355.669 133.625 C 355.667 135.379,355.636 135.447,354.966 135.182 C 354.756 135.098,353.833 134.830,352.917 134.585 C 349.132 133.573,348.216 133.390,342.909 132.587 C 340.643 132.244,333.854 132.243,330.917 132.585 C 327.209 133.017,325.941 133.186,325.218 133.346 C 323.896 133.638,323.966 133.764,324.077 131.292 C 324.402 124.081,325.522 119.696,327.941 116.168 C 330.769 112.045,337.002 109.877,342.750 111.016 M208.872 142.448 C 212.663 143.943,215.640 147.126,222.252 156.750 C 234.675 174.835,242.297 180.667,254.833 181.679 C 267.167 182.675,275.928 177.266,294.000 157.500 C 296.983 154.237,298.020 153.188,299.917 151.514 C 306.206 145.964,311.916 143.179,317.583 142.898 C 320.288 142.764,320.831 142.970,319.150 143.492 C 317.228 144.088,312.812 146.324,310.333 147.956 C 304.674 151.681,302.656 154.000,294.415 166.250 C 290.299 172.369,287.976 175.528,285.842 177.910 C 285.516 178.273,284.877 178.986,284.420 179.494 C 271.906 193.415,256.473 198.764,240.615 194.675 C 223.854 190.353,211.617 175.448,207.836 154.750 C 207.046 150.427,206.366 142.356,206.758 141.964 C 206.879 141.844,207.979 142.095,208.872 142.448 M28.133 144.525 C 32.245 157.045,40.833 168.595,51.153 175.486 C 63.728 183.883,79.007 186.612,98.239 183.896 L 99.062 183.780 98.406 184.567 C 91.126 193.304,74.363 198.019,60.750 195.158 C 37.993 190.375,26.774 173.385,27.140 144.258 C 27.171 141.732,27.220 141.745,28.133 144.525 M320.500 159.662 C 320.500 171.773,320.461 174.083,320.234 175.620 C 318.560 186.912,311.432 194.033,301.542 194.291 L 298.667 194.366 298.667 179.585 L 298.667 164.805 300.440 162.194 C 305.644 154.532,309.095 151.147,314.917 147.992 C 316.163 147.316,320.098 145.526,320.375 145.508 C 320.444 145.504,320.500 151.873,320.500 159.662 " stroke="none" fill="#441c04" fill-rule="evenodd"></path><path id="path4" d="M129.833 112.750 C 129.833 123.918,129.872 133.017,129.919 132.970 C 130.029 132.860,130.025 92.636,129.915 92.526 C 129.870 92.481,129.833 101.582,129.833 112.750 M105.542 92.948 C 105.702 92.990,105.965 92.990,106.125 92.948 C 106.285 92.906,106.154 92.872,105.833 92.872 C 105.513 92.872,105.381 92.906,105.542 92.948 M158.328 94.792 L 157.417 95.750 158.375 94.839 C 159.265 93.993,159.410 93.833,159.286 93.833 C 159.260 93.833,158.829 94.265,158.328 94.792 M322.375 94.788 C 322.719 94.824,323.281 94.824,323.625 94.788 C 323.969 94.752,323.688 94.723,323.000 94.723 C 322.313 94.723,322.031 94.752,322.375 94.788 M160.077 96.542 L 159.250 97.417 160.125 96.590 C 160.938 95.821,161.076 95.667,160.952 95.667 C 160.926 95.667,160.532 96.060,160.077 96.542 M312.000 100.917 C 311.595 101.329,311.301 101.667,311.347 101.667 C 311.393 101.667,311.762 101.329,312.167 100.917 C 312.572 100.504,312.865 100.167,312.819 100.167 C 312.774 100.167,312.405 100.504,312.000 100.917 M343.167 102.879 C 343.167 102.904,343.748 103.486,344.458 104.171 L 345.750 105.417 344.504 104.125 C 343.347 102.925,343.167 102.757,343.167 102.879 M339.288 107.287 C 339.584 107.324,340.109 107.324,340.455 107.288 C 340.800 107.252,340.558 107.222,339.917 107.221 C 339.275 107.221,338.992 107.250,339.288 107.287 M173.864 107.625 C 175.394 107.652,177.944 107.652,179.531 107.625 C 181.118 107.597,179.867 107.575,176.750 107.575 C 173.633 107.575,172.335 107.597,173.864 107.625 M152.872 108.833 C 152.872 109.154,152.906 109.285,152.948 109.125 C 152.990 108.965,152.990 108.702,152.948 108.542 C 152.906 108.381,152.872 108.513,152.872 108.833 M326.658 112.125 L 326.083 112.750 326.708 112.176 C 327.290 111.641,327.410 111.500,327.283 111.500 C 327.255 111.500,326.974 111.781,326.658 112.125 M139.158 119.125 L 138.583 119.750 139.208 119.176 C 139.790 118.641,139.910 118.500,139.783 118.500 C 139.755 118.500,139.474 118.781,139.158 119.125 M137.824 120.458 L 137.250 121.083 137.875 120.509 C 138.219 120.193,138.500 119.912,138.500 119.884 C 138.500 119.757,138.359 119.877,137.824 120.458 M320.717 129.000 C 320.717 129.504,320.748 129.710,320.786 129.458 C 320.824 129.206,320.824 128.794,320.786 128.542 C 320.748 128.290,320.717 128.496,320.717 129.000 M299.042 130.417 C 299.044 130.783,299.078 130.914,299.118 130.706 C 299.158 130.499,299.156 130.199,299.115 130.040 C 299.073 129.880,299.040 130.050,299.042 130.417 M320.539 132.000 C 320.539 132.321,320.573 132.452,320.615 132.292 C 320.657 132.131,320.657 131.869,320.615 131.708 C 320.573 131.548,320.539 131.679,320.539 132.000 M298.733 136.583 C 298.734 137.958,298.759 138.499,298.791 137.784 C 298.822 137.069,298.822 135.944,298.790 135.284 C 298.759 134.624,298.733 135.208,298.733 136.583 M306.083 141.265 L 305.583 141.694 306.125 141.336 C 306.423 141.139,306.667 140.945,306.667 140.905 C 306.667 140.781,306.596 140.824,306.083 141.265 M206.714 144.750 C 206.716 145.208,206.748 145.376,206.786 145.123 C 206.825 144.869,206.824 144.494,206.784 144.289 C 206.744 144.084,206.713 144.292,206.714 144.750 M27.042 146.917 C 27.044 147.283,27.078 147.414,27.118 147.206 C 27.158 146.999,27.156 146.699,27.115 146.540 C 27.073 146.380,27.040 146.550,27.042 146.917 M88.562 151.583 C 88.563 152.592,88.590 152.983,88.623 152.452 C 88.657 151.922,88.656 151.097,88.623 150.619 C 88.589 150.141,88.562 150.575,88.562 151.583 M27.217 151.667 C 27.217 152.171,27.248 152.377,27.286 152.125 C 27.324 151.873,27.324 151.460,27.286 151.208 C 27.248 150.956,27.217 151.162,27.217 151.667 M110.375 151.750 C 110.377 152.117,110.411 152.247,110.451 152.040 C 110.491 151.832,110.490 151.532,110.448 151.373 C 110.406 151.214,110.374 151.383,110.375 151.750 M297.414 153.875 L 295.750 155.583 297.458 153.920 C 299.045 152.375,299.242 152.167,299.122 152.167 C 299.097 152.167,298.328 152.935,297.414 153.875 M110.214 154.583 C 110.216 155.042,110.248 155.209,110.286 154.956 C 110.325 154.703,110.324 154.328,110.284 154.123 C 110.244 153.918,110.213 154.125,110.214 154.583 M290.491 161.292 L 289.917 161.917 290.542 161.342 C 291.123 160.808,291.243 160.667,291.116 160.667 C 291.088 160.667,290.807 160.948,290.491 161.292 M287.579 164.375 L 286.417 165.583 287.625 164.421 C 288.747 163.342,288.909 163.167,288.787 163.167 C 288.762 163.167,288.218 163.710,287.579 164.375 M42.750 168.667 C 43.571 169.492,44.281 170.167,44.326 170.167 C 44.372 170.167,43.738 169.492,42.917 168.667 C 42.095 167.842,41.386 167.167,41.340 167.167 C 41.294 167.167,41.929 167.842,42.750 168.667 M283.077 168.875 L 282.250 169.750 283.125 168.923 C 283.606 168.468,284.000 168.074,284.000 168.048 C 284.000 167.924,283.846 168.062,283.077 168.875 M231.500 169.219 C 231.500 169.248,231.744 169.491,232.042 169.760 L 232.583 170.250 232.094 169.708 C 231.638 169.203,231.500 169.090,231.500 169.219 M320.381 173.583 C 320.382 174.042,320.415 174.209,320.453 173.956 C 320.491 173.703,320.490 173.328,320.451 173.123 C 320.411 172.918,320.380 173.125,320.381 173.583 M81.658 174.292 L 81.083 174.917 81.708 174.342 C 82.290 173.808,82.410 173.667,82.283 173.667 C 82.255 173.667,81.974 173.948,81.658 174.292 M76.480 177.381 C 76.553 177.453,77.393 177.490,78.348 177.464 L 80.083 177.415 78.216 177.332 C 77.189 177.287,76.408 177.309,76.480 177.381 M282.161 181.792 L 281.250 182.750 282.208 181.839 C 283.099 180.993,283.243 180.833,283.119 180.833 C 283.093 180.833,282.662 181.265,282.161 181.792 M222.333 184.250 C 222.644 184.571,222.936 184.833,222.982 184.833 C 223.028 184.833,222.811 184.571,222.500 184.250 C 222.189 183.929,221.897 183.667,221.851 183.667 C 221.805 183.667,222.022 183.929,222.333 184.250 M92.542 184.615 C 92.702 184.657,92.965 184.657,93.125 184.615 C 93.285 184.573,93.154 184.539,92.833 184.539 C 92.513 184.539,92.381 184.573,92.542 184.615 M81.047 184.956 C 81.485 184.990,82.160 184.990,82.547 184.955 C 82.934 184.920,82.575 184.892,81.750 184.892 C 80.925 184.893,80.609 184.922,81.047 184.956 M86.964 184.956 C 87.448 184.990,88.198 184.990,88.631 184.956 C 89.063 184.921,88.667 184.894,87.750 184.894 C 86.833 184.895,86.480 184.923,86.964 184.956 M97.491 185.458 L 96.917 186.083 97.542 185.509 C 98.123 184.974,98.243 184.833,98.116 184.833 C 98.088 184.833,97.807 185.115,97.491 185.458 M313.909 189.042 L 313.250 189.750 313.958 189.091 C 314.617 188.478,314.743 188.333,314.617 188.333 C 314.590 188.333,314.271 188.652,313.909 189.042 " stroke="none" fill="#865d29" fill-rule="evenodd"></path></g></svg>