<svg xmlns="http://www.w3.org/2000/svg" width="3508" height="2481" viewBox="0 0 3508 2481" version="1.1"><path d="M 2944.593 769.091 C 2860.303 773.909, 2786.101 802.112, 2727 851.794 C 2714.166 862.583, 2690.202 887.162, 2680.081 899.917 C 2634.453 957.423, 2606.372 1031.434, 2595.038 1124.062 C 2591.257 1154.966, 2590.788 1166.718, 2590.296 1242.985 L 2589.802 1319.471 2576.555 1333.485 C 2569.268 1341.193, 2554.845 1356.725, 2544.503 1368 C 2519.803 1394.927, 2471.797 1442.770, 2455.805 1456.397 C 2419.519 1487.316, 2393.346 1505.239, 2361.500 1520.979 C 2334.614 1534.267, 2313.057 1541.587, 2287.500 1546.106 C 2276.567 1548.039, 2271.002 1548.405, 2252.500 1548.409 C 2228.358 1548.413, 2219.512 1547.339, 2199.125 1541.926 C 2134.257 1524.705, 2078.940 1474.494, 2052.682 1409 C 2035.673 1366.576, 2027.910 1317.460, 2027.883 1252.096 C 2027.867 1214.800, 2030.751 1188.327, 2038.134 1158 C 2061.484 1062.085, 2118.803 995.815, 2195.153 976.461 C 2217.956 970.681, 2218.816 970.636, 2301.500 970.891 C 2385.081 971.150, 2389.460 970.919, 2411.582 965.083 C 2464.090 951.229, 2509.029 918.424, 2532.913 876.512 C 2542.432 859.806, 2548.852 840.358, 2551.560 820.022 C 2553.357 806.525, 2553.467 784.971, 2551.750 782.808 C 2550.794 781.604, 2547.679 781.088, 2538.500 780.613 C 2531.900 780.271, 2514.350 779.331, 2499.500 778.524 C 2390.042 772.573, 2258.252 769.041, 2216.187 770.930 C 2169.618 773.022, 2136.870 777.527, 2100 786.915 C 1993.840 813.945, 1912.564 875.493, 1858.901 969.493 C 1827.690 1024.164, 1805.010 1092.728, 1792.028 1171.658 L 1790.850 1178.816 1784.175 1176.871 C 1757.053 1168.968, 1709.978 1158.376, 1678.500 1153.094 C 1570.384 1134.951, 1476.266 1137.790, 1381.164 1162.065 C 1370.530 1164.779, 1361.619 1167, 1361.362 1167 C 1361.106 1167, 1361.064 1144.838, 1361.268 1117.750 C 1361.670 1064.640, 1361.532 1066.223, 1367.626 1045.141 C 1370.623 1034.772, 1377.223 1020.507, 1382.871 1012.190 C 1395.608 993.434, 1413.742 980.942, 1438.500 973.869 L 1446.500 971.584 1548 970.961 C 1657.957 970.285, 1659.670 970.205, 1687.959 964.393 C 1765.196 948.525, 1820.436 897.469, 1834.988 828.500 C 1836.504 821.316, 1837.266 813.079, 1837.695 799.250 L 1838.292 780 1474.165 780 L 1110.039 780 1109.740 1028.250 L 1109.442 1276.500 1107.219 1286.159 C 1098.217 1325.274, 1075.520 1363.406, 1038.140 1402.215 C 1025.152 1415.700, 1005.459 1433.330, 990.842 1444.557 L 981.183 1451.976 982.624 1445.799 C 990.683 1411.254, 996 1371.685, 997.985 1331.500 C 998.581 1319.423, 998.978 1206.822, 998.986 1047.250 L 999 783 963.250 783.006 C 924.802 783.012, 916.063 783.749, 898.258 788.489 C 855.892 799.765, 815.003 829.610, 789.327 868 C 768.761 898.749, 756.931 931.265, 750.355 975.121 L 748.649 986.500 747.980 1163.500 C 747.292 1345.621, 747.203 1349.573, 743.005 1383.114 C 731.292 1476.696, 697.240 1531.197, 641.500 1545.571 L 631.500 1548.150 610 1547.651 C 587.473 1547.128, 581.728 1546.295, 567.176 1541.438 C 550.001 1535.705, 522.598 1519.832, 514.420 1510.880 C 508.571 1504.477, 500.981 1492.913, 495.616 1482.232 C 481.109 1453.345, 474.069 1425.236, 467.883 1371.500 C 467.082 1364.542, 466.516 1305.366, 466.024 1177 C 465.396 1013.094, 465.131 991.115, 463.651 980.089 C 461.483 963.939, 457.646 945.067, 453.931 932.287 C 431.855 856.333, 376.805 802.209, 305 785.859 L 295.500 783.696 255.250 783.269 L 215 782.842 215.004 1059.671 C 215.008 1336.346, 215.107 1345.245, 218.547 1379.500 C 227.926 1472.875, 256.955 1550.821, 304.578 1610.500 C 315.802 1624.566, 341.331 1650.058, 355.500 1661.349 C 415.562 1709.212, 492.102 1737.695, 577.500 1743.964 C 595.385 1745.277, 639.500 1745.292, 657 1743.992 C 705.650 1740.376, 745.873 1729.689, 786.500 1709.583 C 830.058 1688.027, 865.954 1659.612, 903.941 1616.616 C 912.099 1607.381, 914.920 1604.839, 917.839 1604.093 C 1023.246 1577.146, 1059.614 1566.616, 1097.250 1552.145 L 1110 1547.243 1110 1640.121 L 1110 1733 1140.750 1732.999 C 1174.908 1732.998, 1187.666 1732.107, 1205.756 1728.458 C 1283.686 1712.739, 1337.414 1653.861, 1356.347 1563.432 C 1360.156 1545.242, 1362.081 1527.747, 1362.998 1503 C 1363.514 1489.062, 1364.463 1477.488, 1365.491 1472.583 C 1383.911 1384.692, 1498.620 1279.861, 1611.278 1247.963 C 1637.529 1240.531, 1663.319 1236.123, 1693.500 1233.910 C 1712.302 1232.532, 1749.175 1233.301, 1768.500 1235.474 C 1775.650 1236.278, 1781.987 1236.951, 1782.582 1236.968 C 1783.337 1236.990, 1783.524 1243.275, 1783.203 1257.782 C 1781.306 1343.389, 1800.953 1432.526, 1838.916 1510.546 C 1853.451 1540.417, 1865.633 1560.873, 1883.852 1586 C 1929.258 1648.624, 1991.826 1696.587, 2060.668 1721.541 C 2126.744 1745.493, 2205.256 1752.365, 2270.795 1739.932 C 2343.598 1726.122, 2411.038 1689.699, 2481 1626.405 C 2518.891 1592.125, 2550.686 1553.906, 2582.348 1504.578 L 2590 1492.656 2590 1612.419 L 2590 1732.183 2632.250 1731.710 C 2666.623 1731.324, 2675.805 1730.931, 2681.500 1729.598 C 2746.108 1714.483, 2802.490 1658.594, 2826.410 1585.956 C 2832.112 1568.638, 2835.815 1552.438, 2838.627 1532.500 C 2840.123 1521.896, 2840.366 1506.285, 2840.717 1398.315 L 2841.115 1276.130 2846.808 1275.315 C 2849.938 1274.867, 2862.625 1274.544, 2875 1274.598 C 2892.750 1274.676, 2900.539 1275.160, 2911.893 1276.892 C 2982.531 1287.666, 3046.372 1323.257, 3088.570 1375.389 C 3102.018 1392.003, 3116.066 1416.882, 3119.926 1430.920 C 3125.579 1451.477, 3131.974 1505.676, 3132.017 1533.395 C 3132.065 1563.630, 3138.270 1590.495, 3151.531 1617.869 C 3162.324 1640.150, 3174.332 1657.234, 3191.932 1675.346 C 3219.356 1703.566, 3250.112 1721.869, 3282.500 1729.240 C 3290.543 1731.071, 3295.778 1731.336, 3331.750 1731.732 L 3372 1732.174 3371.994 1465.837 C 3371.991 1301.413, 3371.602 1191.273, 3370.979 1178 C 3364.729 1045.010, 3329.167 947.869, 3260.496 876.206 C 3204.662 817.940, 3131.600 782.469, 3045 771.586 C 3018.528 768.259, 2977.145 767.231, 2944.593 769.091 M 1140 988.667 C 1140 1085.283, 1140.159 1164.146, 1140.353 1163.917 C 1140.547 1163.688, 1143.282 1157.650, 1146.430 1150.500 C 1163.640 1111.413, 1186.971 1077.890, 1218.143 1047.462 C 1249.004 1017.339, 1281.418 995.824, 1322.935 977.909 L 1338.500 971.192 1340.246 955.346 C 1347.890 885.961, 1369.452 841.250, 1408.024 814.802 L 1410.500 813.105 1275.250 813.052 L 1140 813 1140 988.667 M 1474.345 814.526 C 1439.120 820.971, 1413.149 835.402, 1396.132 857.986 C 1380.624 878.566, 1371.114 903.982, 1365.445 940 C 1364.103 948.525, 1363.004 957.236, 1363.003 959.357 C 1363 962.630, 1363.265 963.108, 1364.750 962.517 C 1371.756 959.726, 1400.121 953.221, 1421.866 949.419 C 1444.429 945.474, 1452.454 945.073, 1529 944.063 C 1648.598 942.485, 1652.128 942.385, 1666.500 940.168 C 1708.071 933.757, 1739.960 919.306, 1764.674 895.679 C 1787.059 874.279, 1801.847 846.549, 1806.501 817.250 L 1807.176 813 1644.338 813.108 C 1514.819 813.194, 1480.036 813.484, 1474.345 814.526 M 924.863 816.072 C 909.211 818.371, 893.262 823.773, 875.921 832.651 C 825.575 858.425, 792.267 907.874, 782.059 972 C 778.195 996.268, 778.021 1004.707, 778.001 1168.500 C 777.989 1262.599, 777.570 1335.502, 776.983 1345.500 C 773.503 1404.817, 763.807 1449.413, 746.515 1485.636 C 729.456 1521.371, 707.837 1543.159, 680 1552.671 L 670.500 1555.917 688 1555.950 C 756.043 1556.079, 840.468 1536.096, 900.448 1505.665 C 915.774 1497.889, 940.751 1482.281, 944.117 1478.376 C 945.957 1476.241, 951.503 1454.642, 955.901 1432.487 C 959.144 1416.148, 963.043 1389.321, 965.711 1365 L 967.410 1349.500 967.730 1082.250 L 968.050 815 949.275 815.122 C 938.949 815.189, 927.963 815.617, 924.863 816.072 M 2806.871 838.250 C 2790.020 846.735, 2775.174 855.819, 2761.533 865.993 C 2689.724 919.553, 2646.347 997.603, 2628.984 1104.500 C 2622.385 1145.122, 2620.980 1166.154, 2620.299 1234.472 L 2619.731 1291.444 2626.926 1284.972 C 2682.351 1235.117, 2731.965 1204.910, 2790.284 1185.513 C 2800.615 1182.077, 2809.341 1178.992, 2809.676 1178.658 C 2810.010 1178.323, 2810.658 1167.818, 2811.115 1155.313 C 2814.383 1065.880, 2832.617 1011.906, 2871.232 977.356 C 2897.784 953.600, 2935.982 940.801, 2980.500 940.744 C 3004.996 940.712, 3022.896 943.703, 3044.566 951.448 C 3049.755 953.303, 3054 954.601, 3054 954.334 C 3054 954.067, 3050.659 949.495, 3046.576 944.174 C 2996.772 879.270, 2930.717 841.986, 2850.500 833.502 C 2842.800 832.688, 2832.626 832.017, 2827.892 832.011 L 2819.284 832 2806.871 838.250 M 2956.500 972.553 C 2925.828 977.184, 2902.602 988.171, 2885.432 1006.171 C 2858.003 1034.926, 2844.696 1080.183, 2841.420 1155.863 L 2840.712 1172.226 2842.606 1171.640 C 2846.692 1170.374, 2887.489 1164.961, 2905 1163.362 C 2931.910 1160.903, 2985.443 1160.878, 3005 1163.315 C 3036.041 1167.182, 3064.359 1172.882, 3098.238 1182.083 C 3108.282 1184.811, 3117.287 1187.288, 3118.250 1187.589 C 3119.820 1188.079, 3120 1187.281, 3119.996 1179.817 C 3119.991 1169.387, 3118.391 1147.340, 3116.453 1131 C 3110.837 1083.643, 3099.905 1048.323, 3082.871 1022.500 C 3076.223 1012.422, 3060.745 996.819, 3051.172 990.545 C 3037.145 981.352, 3018.643 974.726, 2999.608 972.078 C 2989.243 970.637, 2967.613 970.875, 2956.500 972.553 M 1814.361 1265.506 C 1819.157 1404.002, 1867.201 1528.342, 1948 1611.372 C 2003.414 1668.317, 2071.429 1703.186, 2149 1714.418 C 2175.195 1718.211, 2213.419 1719.351, 2236.500 1717.028 C 2347.697 1705.836, 2450.068 1638.602, 2540.303 1517.500 C 2546.860 1508.700, 2565.255 1482.031, 2581.181 1458.235 C 2648.206 1358.088, 2669.304 1333.035, 2711.500 1303.493 C 2736.402 1286.058, 2771.219 1267.533, 2794.228 1259.476 C 2803.143 1256.354, 2805.994 1254.977, 2804.649 1254.443 C 2801.213 1253.079, 2771.970 1254.824, 2761.606 1257.012 C 2734.483 1262.736, 2705.049 1275.595, 2678.032 1293.522 C 2646.196 1314.648, 2619.952 1338.091, 2583.464 1378 C 2531.722 1434.593, 2492.700 1474.595, 2465.988 1498.426 C 2384.705 1570.945, 2318.127 1599.366, 2239.907 1594.933 C 2153.181 1590.018, 2083.425 1549.922, 2013.955 1465.056 C 1995.435 1442.431, 1982.306 1424.404, 1948.003 1374.500 C 1900.584 1305.514, 1880.468 1281.372, 1855.500 1263.483 C 1843.649 1254.992, 1823.225 1246, 1815.791 1246 L 1813.686 1246 1814.361 1265.506 M 238.798 1269.060 C 235.608 1425.800, 273.710 1542.239, 353.658 1620.072 C 377.278 1643.066, 403.553 1661.921, 432.651 1676.754 C 473.721 1697.691, 513.986 1709.863, 564.776 1716.697 C 581.012 1718.882, 633.433 1719.170, 651.500 1717.174 C 731.488 1708.338, 802.206 1677.344, 852.069 1629.270 C 864.505 1617.280, 867.787 1613.300, 864.336 1614.392 C 861.374 1615.329, 824.988 1619.781, 806 1621.530 C 782.257 1623.717, 726.234 1624.572, 704 1623.086 C 635.332 1618.497, 580.797 1606.205, 525 1582.740 C 438.830 1546.502, 364.089 1482.972, 309.458 1399.530 C 282.943 1359.031, 258.873 1309.247, 243.959 1264.060 L 239.193 1249.619 238.798 1269.060 M 2792.941 1284.853 C 2758.541 1299.816, 2732.293 1315.830, 2708.106 1336.613 C 2684.431 1356.955, 2666.668 1378.404, 2635.133 1424.732 L 2620 1446.963 2620 1575.482 L 2620 1704 2638.869 1704 C 2651.177 1704, 2660.826 1703.472, 2666.619 1702.482 C 2701.432 1696.530, 2738.329 1675.425, 2761.702 1648.093 C 2781.770 1624.628, 2796.152 1594.851, 2803.513 1561.530 C 2809.576 1534.081, 2809.359 1539.616, 2809.731 1403.250 C 2809.919 1334.362, 2809.719 1278.019, 2809.287 1278.042 C 2808.854 1278.066, 2801.498 1281.130, 2792.941 1284.853" stroke="none" fill="#fffcfc" fill-rule="evenodd"/><path d="" stroke="none" fill="#fcfcfc" fill-rule="evenodd"/></svg>